<svg width="14" height="16" viewBox="0 0 14 16" fill="none" xmlns="http://www.w3.org/2000/svg">
<path d="M3.125 15.1689H0.21875V5.8252H3.125V15.1689ZM1.65625 4.5752C0.75 4.5752 0 3.79395 0 2.85645C0 1.5752 1.375 0.762695 2.5 1.41895C3.03125 1.7002 3.34375 2.2627 3.34375 2.85645C3.34375 3.79395 2.59375 4.5752 1.65625 4.5752ZM13.9688 15.1689H11.0938V10.6377C11.0938 9.54395 11.0625 8.16895 9.5625 8.16895C8.0625 8.16895 7.84375 9.3252 7.84375 10.5439V15.1689H4.9375V5.8252H7.71875V7.10645H7.75C8.15625 6.3877 9.09375 5.60645 10.5 5.60645C13.4375 5.60645 14 7.54395 14 10.0439V15.1689H13.9688Z" fill="#0C5B2C"/>
</svg>
