<svg width="20" height="20" viewBox="0 0 20 20" fill="none" xmlns="http://www.w3.org/2000/svg">
<path d="M14.166 8.33301C15.5467 8.33301 16.666 7.21372 16.666 5.83301C16.666 4.4523 15.5467 3.33301 14.166 3.33301C12.7853 3.33301 11.666 4.4523 11.666 5.83301C11.666 7.21372 12.7853 8.33301 14.166 8.33301Z" stroke="#6C727F" stroke-width="1.25" stroke-linecap="round" stroke-linejoin="round"/>
<path d="M5.83301 16.6665C7.21372 16.6665 8.33301 15.5472 8.33301 14.1665C8.33301 12.7858 7.21372 11.6665 5.83301 11.6665C4.4523 11.6665 3.33301 12.7858 3.33301 14.1665C3.33301 15.5472 4.4523 16.6665 5.83301 16.6665Z" stroke="#6C727F" stroke-width="1.25" stroke-linecap="round" stroke-linejoin="round"/>
<path d="M11.6663 11.6663H16.6663V15.833C16.6663 16.054 16.5785 16.266 16.4223 16.4223C16.266 16.5785 16.054 16.6663 15.833 16.6663H12.4997C12.2787 16.6663 12.0667 16.5785 11.9104 16.4223C11.7541 16.266 11.6663 16.054 11.6663 15.833V11.6663ZM3.33301 3.33301H8.33301V7.49967C8.33301 7.72069 8.24521 7.93265 8.08893 8.08893C7.93265 8.24521 7.72069 8.33301 7.49967 8.33301H4.16634C3.94533 8.33301 3.73337 8.24521 3.57709 8.08893C3.42081 7.93265 3.33301 7.72069 3.33301 7.49967V3.33301Z" stroke="#6C727F" stroke-width="1.25" stroke-linecap="round" stroke-linejoin="round"/>
</svg>
