<svg width="44" height="44" viewBox="0 0 44 44" fill="none" xmlns="http://www.w3.org/2000/svg">
<rect width="44" height="44" rx="8" fill="#EEFFF3"/>
<path fill-rule="evenodd" clip-rule="evenodd" d="M15.25 25.1287L23.9393 16.4393C24.5251 15.8536 25.4749 15.8536 26.0607 16.4393C26.6464 17.0251 26.6464 17.9749 26.0607 18.5607L16.3107 28.3107C15.7249 28.8964 14.7751 28.8964 14.1893 28.3107L10.4393 24.5607C9.85355 23.9749 9.85355 23.0251 10.4393 22.4393C11.0251 21.8536 11.9749 21.8536 12.5607 22.4393L15.25 25.1287ZM23.8107 28.3107C23.2249 28.8964 22.2751 28.8964 21.6893 28.3107C21.1036 27.7249 21.1036 26.7751 21.6893 26.1893L31.4393 16.4393C32.0251 15.8536 32.9749 15.8536 33.5607 16.4393C34.1464 17.0251 34.1464 17.9749 33.5607 18.5607L23.8107 28.3107Z" fill="#0C5B2C"/>
</svg>
